<?xml version="1.0" encoding="utf-8"?>
<!-- Generator: Adobe Illustrator 21.0.0, SVG Export Plug-In . SVG Version: 6.00 Build 0)  -->
<svg version="1.1" id="Layer_1" xmlns="http://www.w3.org/2000/svg" xmlns:xlink="http://www.w3.org/1999/xlink" x="0px" y="0px"
	 viewBox="0 0 512 512" style="enable-background:new 0 0 512 512;" xml:space="preserve">
<g>
	<path d="M95.3,102.6c-23.2,0-46.8,9.1-50.7,14c-1,2.1-3.4,18.6,2.2,18.6c1.9,0,2.7,0.3,8.2-2.2c20.5-8,33.5-7.8,35.3-7.8
		c23-2.2,36.4,13.5,34.3,33.8v11.9c-19.5-4.6-30.6-4.8-36-4.8c-28.3-1.7-54.5,13.2-54.5,46.1c0,36,32.1,43.7,44.6,43.2
		c18.6,0.2,36.4-8.2,48.1-22.7c9.4,21,15.4,19.6,15.5,19.6c1.7,0,3.1-0.7,4.4-1.5l9.7-6.8c1.7-1,3.1-2.7,3.2-4.8
		c-0.2-5-9.1-12.6-8.4-29.9V156c1-14.7-3.7-29-13.6-40.1C126,106,110.5,101.2,95.3,102.6z M425.9,102.6c-34.1,0-53.7,21.3-53.2,43
		c0,29.7,30,39.1,33.4,40.1c28.8,9,32.8,9.4,40.8,16.2c6.8,7,6,20.7-4.1,26.6c-2.9,1.7-15.4,9.2-43.5,3.4c-9.4-1.9-14.3-4.1-22-7.3
		c-2.1-0.7-6.8-1.9-6.8,4.4v8.4c0,3.9,2.4,7.5,6,9.2c17.9,9,39.4,9.4,44,9.4c0.7,0,39.9,0,53.1-26.5c2.7-5.5,9.7-25.4-3.4-42.5
		c-10.9-12.8-20.3-14.2-48.3-22.7c-2.4-0.7-23-6-22.9-20.5c-1-18.6,24.2-19.6,29.5-19.3c21.3-0.3,31.9,7.7,37.7,8.2
		c2.6,0,3.8-1.5,3.8-4.9V120c0.2-1.9-0.5-3.7-1.5-5.3C461.6,105.9,435.5,102.6,425.9,102.6z M166.9,106.9c-1.9,0.3-3.2,2.2-2.9,4.1
		c0.3,2.2,0.7,4.5,1.5,6.7l38.2,126.1c0.9,4.1,3.6,8.6,9.5,7.9h14c8.5,0.9,9.7-7.4,9.9-8.2l25.1-105.1l25.4,105.3
		c0.2,0.9,1.4,9.1,9.7,8.2h14.2c6.1,0.7,9.1-3.8,9.9-7.9c43-138.4,40.1-129,40.4-130.4c0.7-7.2-3.4-6.7-4.1-6.5h-15.2
		c-7.7-0.9-9.2,6.2-9.5,7.9l-28.3,109.4l-25.6-109.4c-1.2-8.4-8-8-9.7-7.9h-13.1c-7.5-0.7-9.4,5.3-9.9,7.9L221,222.8l-27.3-107.9
		c-0.7-3.4-2.9-8.7-9.6-8H166.9z M94.3,185.9c12.3,0.2,22.9,2,30.2,3.7c0,8.5,0.3,13.3-1.6,21c-2.4,8.2-13,23.1-37.9,23.4
		c-14.3,0.7-23.7-10.6-22.9-23.4C61.3,190.1,82.5,185,94.3,185.9z M478.6,290.2c-15.9,0.2-34.7,3.8-49,13.8
		c-4.4,3.1-3.6,7.3,1.3,6.7c16-1.9,51.8-6.3,58.1,1.9c6.4,8.2-7.1,41.8-13,56.9c-1.8,4.5,2.1,6.4,6.2,2.9
		c26.7-22.4,33.6-69.2,28.2-76C507.5,293.1,494.5,290,478.6,290.2z M3.7,307.3c-3.7,0.5-5.3,5.2-1.4,9
		c66.9,62.7,155.2,93.4,253.3,93.4c70,0,151.2-22.8,207.2-65.8c9.3-7.2,1.4-17.9-8.1-13.6c-62.9,27.7-131.1,41.1-193.3,41.1
		C169.3,371.3,80.1,352,8,308.4C6.4,307.4,4.9,307.1,3.7,307.3z"/>
</g>
</svg>
